<?xml version="1.0" encoding="UTF-8" standalone="no"?>
<svg width="19px" height="18px" viewBox="0 0 19 18" version="1.1" xmlns="http://www.w3.org/2000/svg" xmlns:xlink="http://www.w3.org/1999/xlink">
    <!-- Generator: Sketch 39.1 (31720) - http://www.bohemiancoding.com/sketch -->
    <title>plyr-volume</title>
    <desc>Created with Sketch.</desc>
    <defs></defs>
    <g id="player-v1" stroke="none" stroke-width="1" fill-rule="evenodd">
        <g id="-" transform="translate(-120.000000, -26.000000)">
            <path d="M131.843728,26 L131.843728,28.1480324 C134.810058,29.0660605 136.958091,31.7280864 136.958091,35 C136.958091,38.277028 134.810058,40.9339395 131.843728,41.8519676 L131.843728,44 C135.933939,43.0806933 139,39.3996306 139,35 C139,30.6054837 135.933939,26.9193067 131.843728,26 L131.843728,26 Z M134.400909,35 C134.400909,33.1626652 133.376758,31.6232419 131.843728,30.9097883 L131.843728,39.0902117 C133.376758,38.3767581 134.400909,36.8424492 134.400909,35 L134.400909,35 Z M120.590851,31.9339395 L120.590851,38.0711749 L124.681063,38.0711749 L129.795425,43.1855377 L129.795425,26.8195766 L124.681063,31.9339395 L120.590851,31.9339395 Z" id="plyr-volume"></path>
        </g>
    </g>
</svg>